<mxfile host="app.diagrams.net" agent="Mozilla/5.0 (Macintosh; Intel Mac OS X 10_15_7) AppleWebKit/605.1.15 (KHTML, like Gecko) Version/17.6 Safari/605.1.15" version="24.7.7">
  <diagram name="Seite-1" id="JS4EYDcLNleQqdy2IWI7">
    <mxGraphModel dx="954" dy="647" grid="1" gridSize="10" guides="1" tooltips="1" connect="1" arrows="1" fold="1" page="1" pageScale="1" pageWidth="827" pageHeight="1169" math="0" shadow="0">
      <root>
        <mxCell id="0" />
        <mxCell id="1" parent="0" />
        <mxCell id="y1j3MipExPK3Uck2WT8Z-48" style="edgeStyle=orthogonalEdgeStyle;rounded=0;orthogonalLoop=1;jettySize=auto;html=1;entryX=0;entryY=0.5;entryDx=0;entryDy=0;" edge="1" parent="1" source="y1j3MipExPK3Uck2WT8Z-1" target="y1j3MipExPK3Uck2WT8Z-3">
          <mxGeometry relative="1" as="geometry" />
        </mxCell>
        <mxCell id="y1j3MipExPK3Uck2WT8Z-49" style="edgeStyle=orthogonalEdgeStyle;rounded=0;orthogonalLoop=1;jettySize=auto;html=1;entryX=0;entryY=0.5;entryDx=0;entryDy=0;" edge="1" parent="1" source="y1j3MipExPK3Uck2WT8Z-1" target="y1j3MipExPK3Uck2WT8Z-2">
          <mxGeometry relative="1" as="geometry">
            <Array as="points">
              <mxPoint x="140" y="120" />
            </Array>
          </mxGeometry>
        </mxCell>
        <mxCell id="y1j3MipExPK3Uck2WT8Z-70" style="edgeStyle=orthogonalEdgeStyle;rounded=0;orthogonalLoop=1;jettySize=auto;html=1;exitX=0.75;exitY=1;exitDx=0;exitDy=0;entryX=0.25;entryY=1;entryDx=0;entryDy=0;" edge="1" parent="1" source="y1j3MipExPK3Uck2WT8Z-1" target="y1j3MipExPK3Uck2WT8Z-6">
          <mxGeometry relative="1" as="geometry">
            <Array as="points">
              <mxPoint x="170" y="440" />
              <mxPoint x="620" y="440" />
            </Array>
          </mxGeometry>
        </mxCell>
        <mxCell id="y1j3MipExPK3Uck2WT8Z-1" value="Estimate State" style="rounded=1;whiteSpace=wrap;html=1;fillColor=#dae8fc;strokeColor=#6c8ebf;" vertex="1" parent="1">
          <mxGeometry x="80" y="270" width="120" height="60" as="geometry" />
        </mxCell>
        <mxCell id="y1j3MipExPK3Uck2WT8Z-42" style="edgeStyle=orthogonalEdgeStyle;rounded=0;orthogonalLoop=1;jettySize=auto;html=1;entryX=0.5;entryY=0;entryDx=0;entryDy=0;" edge="1" parent="1" source="y1j3MipExPK3Uck2WT8Z-2" target="y1j3MipExPK3Uck2WT8Z-5">
          <mxGeometry relative="1" as="geometry" />
        </mxCell>
        <mxCell id="y1j3MipExPK3Uck2WT8Z-58" style="edgeStyle=orthogonalEdgeStyle;rounded=0;orthogonalLoop=1;jettySize=auto;html=1;exitX=1;exitY=0.75;exitDx=0;exitDy=0;" edge="1" parent="1" source="y1j3MipExPK3Uck2WT8Z-2" target="y1j3MipExPK3Uck2WT8Z-4">
          <mxGeometry relative="1" as="geometry" />
        </mxCell>
        <mxCell id="y1j3MipExPK3Uck2WT8Z-2" value="State Estimate Covariance" style="rounded=1;whiteSpace=wrap;html=1;fillColor=#fff2cc;strokeColor=#d6b656;" vertex="1" parent="1">
          <mxGeometry x="340" y="90" width="120" height="60" as="geometry" />
        </mxCell>
        <mxCell id="y1j3MipExPK3Uck2WT8Z-65" style="edgeStyle=orthogonalEdgeStyle;rounded=0;orthogonalLoop=1;jettySize=auto;html=1;entryX=0;entryY=0.75;entryDx=0;entryDy=0;" edge="1" parent="1" source="y1j3MipExPK3Uck2WT8Z-3" target="y1j3MipExPK3Uck2WT8Z-5">
          <mxGeometry relative="1" as="geometry" />
        </mxCell>
        <mxCell id="y1j3MipExPK3Uck2WT8Z-3" value="&lt;div&gt;Innovation:&lt;/div&gt;Calculate difference between Prediction and Measurement" style="rounded=1;whiteSpace=wrap;html=1;fillColor=#dae8fc;strokeColor=#6c8ebf;" vertex="1" parent="1">
          <mxGeometry x="250" y="270" width="120" height="60" as="geometry" />
        </mxCell>
        <mxCell id="y1j3MipExPK3Uck2WT8Z-28" style="edgeStyle=orthogonalEdgeStyle;rounded=0;orthogonalLoop=1;jettySize=auto;html=1;entryX=0;entryY=0.5;entryDx=0;entryDy=0;" edge="1" parent="1" source="y1j3MipExPK3Uck2WT8Z-4" target="y1j3MipExPK3Uck2WT8Z-6">
          <mxGeometry relative="1" as="geometry" />
        </mxCell>
        <mxCell id="y1j3MipExPK3Uck2WT8Z-4" value="Kalman Gain&lt;div&gt;0 &amp;lt;= K &amp;lt;= 1&lt;/div&gt;" style="rounded=1;whiteSpace=wrap;html=1;fillColor=#d5e8d4;strokeColor=#82b366;" vertex="1" parent="1">
          <mxGeometry x="420" y="270" width="120" height="60" as="geometry" />
        </mxCell>
        <mxCell id="y1j3MipExPK3Uck2WT8Z-41" style="edgeStyle=orthogonalEdgeStyle;rounded=0;orthogonalLoop=1;jettySize=auto;html=1;entryX=0;entryY=0.5;entryDx=0;entryDy=0;" edge="1" parent="1" source="y1j3MipExPK3Uck2WT8Z-5" target="y1j3MipExPK3Uck2WT8Z-4">
          <mxGeometry relative="1" as="geometry" />
        </mxCell>
        <mxCell id="y1j3MipExPK3Uck2WT8Z-5" value="Innovation Covariance" style="rounded=1;whiteSpace=wrap;html=1;fillColor=#fff2cc;strokeColor=#d6b656;" vertex="1" parent="1">
          <mxGeometry x="340" y="180" width="120" height="60" as="geometry" />
        </mxCell>
        <mxCell id="y1j3MipExPK3Uck2WT8Z-59" style="edgeStyle=orthogonalEdgeStyle;rounded=0;orthogonalLoop=1;jettySize=auto;html=1;entryX=1;entryY=0.5;entryDx=0;entryDy=0;" edge="1" parent="1" source="y1j3MipExPK3Uck2WT8Z-6" target="y1j3MipExPK3Uck2WT8Z-2">
          <mxGeometry relative="1" as="geometry">
            <Array as="points">
              <mxPoint x="650" y="120" />
            </Array>
          </mxGeometry>
        </mxCell>
        <mxCell id="y1j3MipExPK3Uck2WT8Z-60" style="edgeStyle=orthogonalEdgeStyle;rounded=0;orthogonalLoop=1;jettySize=auto;html=1;exitX=0.5;exitY=1;exitDx=0;exitDy=0;entryX=0.5;entryY=1;entryDx=0;entryDy=0;" edge="1" parent="1" source="y1j3MipExPK3Uck2WT8Z-6" target="y1j3MipExPK3Uck2WT8Z-1">
          <mxGeometry relative="1" as="geometry">
            <Array as="points">
              <mxPoint x="650" y="450" />
              <mxPoint x="140" y="450" />
            </Array>
          </mxGeometry>
        </mxCell>
        <mxCell id="y1j3MipExPK3Uck2WT8Z-6" value="Update State Estimate" style="rounded=1;whiteSpace=wrap;html=1;fillColor=#dae8fc;strokeColor=#6c8ebf;" vertex="1" parent="1">
          <mxGeometry x="590" y="270" width="120" height="60" as="geometry" />
        </mxCell>
        <mxCell id="y1j3MipExPK3Uck2WT8Z-52" style="edgeStyle=orthogonalEdgeStyle;rounded=0;orthogonalLoop=1;jettySize=auto;html=1;entryX=0.5;entryY=1;entryDx=0;entryDy=0;" edge="1" parent="1" source="y1j3MipExPK3Uck2WT8Z-18" target="y1j3MipExPK3Uck2WT8Z-3">
          <mxGeometry relative="1" as="geometry" />
        </mxCell>
        <mxCell id="y1j3MipExPK3Uck2WT8Z-62" style="edgeStyle=orthogonalEdgeStyle;rounded=0;orthogonalLoop=1;jettySize=auto;html=1;entryX=0.5;entryY=1;entryDx=0;entryDy=0;dashed=1;" edge="1" parent="1" source="y1j3MipExPK3Uck2WT8Z-18" target="y1j3MipExPK3Uck2WT8Z-61">
          <mxGeometry relative="1" as="geometry">
            <Array as="points">
              <mxPoint x="230" y="400" />
            </Array>
          </mxGeometry>
        </mxCell>
        <mxCell id="y1j3MipExPK3Uck2WT8Z-18" value="Measure State" style="rounded=1;whiteSpace=wrap;html=1;fillColor=#dae8fc;strokeColor=#6c8ebf;" vertex="1" parent="1">
          <mxGeometry x="250" y="370" width="120" height="60" as="geometry" />
        </mxCell>
        <mxCell id="y1j3MipExPK3Uck2WT8Z-66" style="edgeStyle=orthogonalEdgeStyle;rounded=0;orthogonalLoop=1;jettySize=auto;html=1;entryX=0;entryY=0.5;entryDx=0;entryDy=0;" edge="1" parent="1" source="y1j3MipExPK3Uck2WT8Z-61" target="y1j3MipExPK3Uck2WT8Z-5">
          <mxGeometry relative="1" as="geometry" />
        </mxCell>
        <mxCell id="y1j3MipExPK3Uck2WT8Z-61" value="Measurement Covariance" style="rounded=1;whiteSpace=wrap;html=1;fillColor=#fff2cc;strokeColor=#d6b656;" vertex="1" parent="1">
          <mxGeometry x="170" y="180" width="120" height="60" as="geometry" />
        </mxCell>
        <mxCell id="y1j3MipExPK3Uck2WT8Z-69" style="edgeStyle=orthogonalEdgeStyle;rounded=0;orthogonalLoop=1;jettySize=auto;html=1;exitX=0.75;exitY=1;exitDx=0;exitDy=0;entryX=0.092;entryY=1.017;entryDx=0;entryDy=0;entryPerimeter=0;" edge="1" parent="1" source="y1j3MipExPK3Uck2WT8Z-3" target="y1j3MipExPK3Uck2WT8Z-6">
          <mxGeometry relative="1" as="geometry" />
        </mxCell>
      </root>
    </mxGraphModel>
  </diagram>
</mxfile>
